<?xml version="1.0" standalone="no"?>
<!DOCTYPE svg PUBLIC "-//W3C//DTD SVG 20010904//EN"
 "http://www.w3.org/TR/2001/REC-SVG-20010904/DTD/svg10.dtd">
<svg version="1.0" xmlns="http://www.w3.org/2000/svg"
 width="692.000000pt" height="692.000000pt" viewBox="0 0 692.000000 692.000000"
 preserveAspectRatio="xMidYMid meet">
<metadata>
Created by potrace 1.11, written by Peter Selinger 2001-2013
</metadata>
<g transform="translate(0.000000,692.000000) scale(0.100000,-0.100000)"
fill="#000000" stroke="none">
<path d="M4777 5408 c-10 -5 -17 -7 -17 -4 0 3 -19 -1 -41 -9 -23 -8 -52 -15
-65 -15 -13 0 -24 -4 -24 -8 0 -5 -17 -7 -37 -5 -57 5 -417 5 -593 -1 -455
-15 -632 -19 -798 -18 -135 1 -194 -3 -230 -14 -66 -20 -160 -44 -202 -51 -71
-11 -301 -88 -373 -125 -83 -41 -383 -255 -453 -322 -12 -11 -44 -40 -70 -63
-27 -23 -62 -53 -79 -67 -33 -28 -45 -32 -45 -15 0 14 -62 3 -102 -17 -15 -8
-46 -32 -69 -54 -38 -36 -79 -53 -79 -32 0 4 27 25 60 47 33 22 60 43 60 48 0
4 -19 -5 -42 -20 -93 -60 -111 -79 -102 -106 4 -12 7 -28 7 -35 0 -7 6 -11 13
-8 8 3 16 1 19 -4 7 -11 -42 -37 -85 -45 -19 -3 -36 -8 -40 -10 -4 -3 -29 -7
-56 -10 -27 -2 -60 -7 -74 -10 -14 -3 -43 -7 -65 -10 -37 -4 -84 -10 -146 -21
-15 -2 -47 -6 -70 -9 -24 -3 -51 -8 -59 -10 -8 -2 -30 -7 -47 -10 -18 -3 -48
-7 -65 -10 -18 -3 -40 -8 -49 -11 -10 -2 -30 -7 -45 -9 -48 -7 -145 -35 -215
-61 -93 -35 -154 -76 -185 -125 -14 -24 -42 -58 -60 -77 -43 -45 -85 -129 -88
-180 -3 -29 -13 -49 -41 -78 -44 -47 -90 -111 -98 -139 -29 -96 -27 -451 3
-707 12 -105 18 -120 66 -183 61 -81 124 -133 167 -141 63 -10 75 -29 76 -124
1 -45 4 -86 7 -92 3 -5 7 -28 9 -51 2 -23 13 -76 25 -117 57 -199 171 -353
305 -411 61 -27 69 -39 27 -39 -16 0 -51 -6 -78 -14 -27 -8 -60 -16 -74 -18
-14 -2 -24 -9 -22 -16 2 -9 -3 -10 -16 -3 -12 6 -23 6 -33 -1 -11 -8 -11 -9 4
-4 10 3 17 0 17 -8 0 -7 -6 -13 -12 -14 -25 -2 -48 -8 -54 -15 -4 -4 -14 -1
-23 6 -14 11 -14 10 -2 -6 9 -11 10 -17 2 -17 -6 0 -11 -5 -11 -11 0 -8 4 -8
14 0 10 8 16 9 21 1 3 -5 2 -10 -3 -10 -5 0 -12 -8 -15 -19 -3 -14 1 -18 17
-16 11 1 21 3 21 4 0 2 8 4 17 6 10 2 27 -8 40 -23 12 -15 18 -19 15 -9 -7 19
9 24 16 5 4 -10 6 -10 6 -1 1 15 -34 35 -43 25 -4 -3 -4 2 0 12 5 13 9 14 14
6 5 -7 13 -9 20 -5 9 5 11 4 6 -3 -4 -7 -1 -12 9 -12 9 0 14 4 11 9 -4 5 3 7
14 4 11 -3 20 -9 20 -14 0 -5 3 -8 8 -8 19 3 32 -2 32 -12 0 -8 -5 -8 -15 1
-8 7 -15 9 -15 5 0 -4 -7 -2 -15 5 -22 18 -46 -3 -26 -22 10 -11 11 -10 6 5
-4 10 -2 17 4 17 6 0 11 -5 11 -11 0 -6 7 -9 15 -5 8 3 18 -2 23 -10 7 -12 11
-10 20 11 9 19 9 25 0 25 -6 0 -9 3 -6 6 4 3 15 1 26 -5 11 -6 22 -8 25 -3 2
4 2 1 1 -6 -5 -19 24 -26 52 -13 17 7 23 8 19 0 -8 -12 27 -8 36 5 4 4 10 3
13 -3 4 -6 2 -11 -4 -11 -6 0 -9 -4 -6 -8 2 -4 -8 -8 -24 -7 -15 0 -26 3 -23
7 2 5 0 8 -4 8 -16 0 -32 -36 -21 -51 8 -11 9 -11 4 3 -6 20 10 34 17 16 4
-10 6 -10 6 0 1 6 6 12 12 12 5 0 7 -6 3 -12 -6 -10 -5 -10 8 -1 15 13 28 8
28 -9 0 -5 -4 -7 -9 -3 -5 3 -12 1 -15 -4 -4 -5 1 -8 10 -7 8 1 19 8 23 15 11
16 12 17 38 3 19 -10 24 -8 42 16 12 15 18 19 15 9 -5 -13 -2 -16 10 -11 9 3
16 1 16 -4 0 -6 -9 -9 -19 -7 -15 3 -18 0 -14 -13 4 -10 8 -12 11 -4 2 7 7 10
12 7 5 -3 15 2 24 11 9 8 21 12 26 9 6 -4 18 -1 27 7 12 9 15 10 9 0 -4 -7 -1
-15 9 -18 13 -5 13 -9 3 -23 -10 -13 -10 -14 2 -4 19 18 35 16 21 -1 -9 -11
-9 -16 0 -22 7 -4 9 -3 5 4 -3 6 -2 14 4 17 8 5 7 12 -2 23 -7 10 -8 14 -4 10
5 -4 16 -2 25 5 14 11 14 10 2 -5 -8 -11 -9 -18 -3 -18 6 0 10 -6 8 -12 -1 -7
-1 -9 2 -5 2 4 11 2 20 -5 15 -11 15 -11 5 3 -7 9 -9 20 -5 24 4 5 1 5 -6 0
-11 -6 -12 -3 -3 14 13 24 23 28 15 6 -8 -21 24 -19 49 2 11 10 17 13 14 7 -4
-7 0 -17 8 -24 18 -15 20 -34 3 -24 -7 4 -8 3 -4 -5 10 -16 29 -2 22 16 -8 20
2 35 17 26 7 -4 31 -8 54 -9 34 -1 41 2 32 12 -7 8 -7 14 1 19 6 4 9 1 8 -7
-2 -7 3 -12 9 -11 7 2 12 -3 10 -10 -1 -6 4 -11 11 -10 6 2 12 -2 12 -8 0 -5
4 -8 10 -4 5 3 6 13 3 22 -6 15 -5 16 9 3 15 -14 15 -17 0 -34 -17 -19 -17
-19 9 0 15 10 25 22 23 25 -4 8 29 5 43 -4 6 -4 14 -1 16 5 4 8 6 7 6 -4 1 -9
-4 -18 -11 -20 -7 -3 -5 -7 6 -11 9 -4 15 -3 12 1 -2 4 -1 14 3 21 7 11 13 9
30 -8 11 -11 21 -16 21 -10 0 6 7 9 14 6 10 -4 13 -1 9 9 -4 11 -9 12 -19 3
-9 -7 -14 -8 -14 -1 0 16 24 21 41 8 9 -6 14 -17 12 -23 -3 -7 0 -13 7 -13 6
0 9 4 6 9 -3 5 5 16 17 24 19 12 24 13 24 2 0 -8 -4 -12 -8 -9 -4 2 -11 -1
-15 -7 -4 -8 -3 -9 4 -5 7 4 12 1 12 -6 0 -10 3 -9 10 2 5 8 12 12 15 8 4 -3
20 -2 37 3 22 6 36 5 47 -4 12 -10 14 -9 8 6 -9 25 6 21 18 -5 6 -12 17 -24
25 -26 9 -3 7 2 -5 12 -18 14 -18 16 -2 17 9 1 22 3 27 4 6 1 13 3 17 4 4 0
-2 8 -13 17 -18 14 -18 15 4 4 12 -6 20 -15 17 -21 -11 -17 8 -9 34 14 14 12
20 15 13 5 -13 -16 -2 -34 12 -21 10 10 37 13 31 3 -7 -12 20 -19 35 -10 8 5
22 4 33 -1 18 -10 18 -11 0 -32 l-18 -22 23 19 c12 11 22 15 22 10 0 -5 7 -1
15 10 7 10 18 15 24 12 5 -4 14 2 20 11 6 10 11 13 11 7 0 -16 -25 -36 -34
-27 -4 4 -4 -1 0 -12 5 -11 9 -14 12 -7 2 7 8 12 13 12 6 0 7 -5 3 -12 -4 -7
-3 -8 4 -4 7 4 13 17 13 29 1 18 2 19 6 4 3 -11 11 -16 19 -13 8 3 14 -1 14
-10 0 -11 5 -14 16 -10 13 5 15 2 11 -14 -3 -12 -1 -18 5 -14 5 3 8 15 5 25
-3 10 0 20 7 23 8 3 8 5 -1 5 -6 1 -14 -3 -18 -9 -3 -5 -14 -1 -25 10 -22 22
-27 38 -7 21 8 -6 18 -7 22 -3 5 4 5 1 0 -7 -6 -10 -2 -12 13 -7 11 4 23 2 27
-4 5 -8 10 -8 20 0 10 8 15 8 20 0 5 -8 11 -8 21 1 8 6 17 9 20 6 9 -9 -6 -28
-17 -22 -5 4 -9 1 -9 -4 0 -19 28 -12 35 9 3 11 11 20 16 20 6 0 8 -4 5 -8 -2
-4 4 -13 14 -20 13 -8 21 -8 25 -1 5 7 11 6 21 -2 8 -6 21 -8 31 -4 10 4 28 9
41 11 19 2 21 0 12 -11 -7 -8 -10 -20 -7 -27 4 -9 6 -8 6 3 1 23 27 43 36 29
4 -6 14 -10 23 -8 9 2 25 -5 34 -14 21 -21 45 -25 26 -4 -7 8 -16 12 -20 9 -5
-2 -8 0 -8 6 0 15 18 23 25 11 3 -5 15 -15 27 -21 11 -6 18 -7 14 -1 -3 5 1
15 9 22 17 14 17 14 34 -15 l12 -20 -5 20 c-5 16 -1 20 20 21 25 2 25 2 7 -20
l-18 -21 22 19 c13 10 20 23 17 27 -3 5 2 9 11 9 9 0 14 -4 10 -9 -6 -10 33
-36 42 -28 2 3 -4 8 -14 11 -10 3 -19 16 -20 28 -2 21 -1 22 11 6 21 -29 30
-20 10 9 -13 20 -13 25 -2 16 8 -7 19 -9 24 -5 5 4 6 3 2 -2 -8 -9 41 -40 49
-32 8 8 -8 27 -18 21 -5 -4 -9 -2 -9 3 0 10 50 35 57 28 2 -2 -5 -7 -16 -11
-12 -3 -19 -11 -15 -16 4 -6 11 -6 20 2 17 14 19 -2 2 -20 -11 -11 -10 -12 1
-6 11 6 13 4 8 -9 -4 -11 -3 -15 4 -11 6 4 8 14 5 22 -4 10 -2 13 8 10 7 -3
18 -1 24 5 6 6 12 6 17 -3 5 -8 4 -10 -3 -5 -7 4 -12 2 -12 -3 0 -6 4 -11 8
-11 17 0 21 13 11 34 -9 18 -7 17 13 -4 22 -25 68 -38 68 -20 0 5 -9 7 -20 5
-26 -5 -33 8 -15 31 15 18 15 18 9 -1 l-6 -20 18 20 c13 16 16 17 11 3 -3 -10
-2 -20 3 -23 6 -4 10 -2 10 2 0 5 10 14 23 22 20 13 21 13 8 -2 -11 -14 -11
-18 2 -23 13 -5 14 -9 5 -24 -7 -10 -16 -16 -22 -13 -5 4 -6 1 -1 -6 5 -9 11
-9 17 -3 6 6 17 8 24 5 8 -3 14 1 14 8 0 12 2 11 9 0 7 -10 9 -7 8 11 -1 13
-7 25 -14 25 -6 0 -9 -6 -6 -13 2 -6 -1 -15 -8 -20 -8 -5 -11 -2 -6 8 3 9 2
19 -3 24 -5 5 -2 20 6 34 12 20 14 21 9 4 -4 -14 -1 -21 10 -21 8 0 15 4 15 8
0 9 20 7 37 -4 6 -4 14 -3 17 2 4 5 0 11 -6 14 -7 2 -10 7 -7 11 3 3 15 -3 27
-14 25 -23 33 -25 26 -6 -3 8 -1 17 5 21 7 3 8 0 5 -9 -4 -10 1 -18 10 -22 9
-4 23 -18 31 -33 8 -14 14 -21 15 -14 0 7 7 10 15 7 18 -7 20 11 3 22 -7 5 -8
3 -3 -5 5 -9 1 -9 -14 1 -22 13 -29 38 -10 38 5 0 8 -4 4 -9 -3 -5 0 -13 6
-17 7 -4 9 -3 6 3 -4 6 0 18 7 29 13 17 13 16 11 -9 -3 -23 0 -27 15 -22 10 3
21 1 25 -4 3 -6 0 -9 -7 -8 -7 2 -9 2 -5 -1 4 -2 3 -10 -3 -17 -9 -11 -5 -13
22 -8 18 2 43 5 56 6 12 1 22 5 22 10 0 5 -6 7 -13 4 -8 -3 -14 4 -15 19 -1
13 3 24 8 24 5 0 6 -7 3 -17 -5 -12 -3 -14 8 -7 8 4 22 7 33 5 11 -1 16 2 12
8 -4 6 -2 11 4 11 7 0 9 -7 6 -16 -3 -9 -6 -18 -6 -20 0 -3 -9 0 -20 6 -20 11
-26 4 -12 -15 9 -13 32 -18 32 -7 0 4 9 8 20 8 11 0 20 -4 20 -8 0 -4 7 -5 15
-2 27 11 16 23 -17 19 -28 -4 -30 -2 -14 7 15 8 16 12 5 19 -10 6 -8 8 8 7 14
-2 19 -7 15 -17 -3 -9 -1 -12 6 -7 6 3 13 2 16 -2 6 -9 94 -8 176 2 25 3 63 8
85 10 70 8 139 16 172 20 40 5 236 48 243 53 2 2 -2 8 -10 13 -9 6 -10 10 -3
10 6 0 15 -5 18 -10 4 -6 10 -8 14 -6 11 7 63 18 85 17 25 0 14 9 -19 15 -18
3 -24 1 -20 -7 4 -6 -4 -3 -19 6 -14 10 -26 20 -26 23 0 3 3 2 7 -1 3 -4 12 1
19 11 12 15 12 14 8 -8 -4 -17 -3 -21 4 -12 5 8 12 13 16 13 18 -3 20 0 6 9
-11 8 -6 9 18 5 25 -4 32 -2 26 7 -6 10 -4 11 7 1 18 -18 34 -16 19 2 -8 9 -8
15 -2 15 11 0 28 -38 24 -53 -1 -5 2 -6 7 -3 5 3 7 15 4 26 -3 12 0 20 6 20 7
0 9 4 6 10 -4 6 1 7 10 3 10 -3 21 0 27 8 7 11 8 9 3 -6 -3 -11 -3 -16 1 -12
9 9 35 -13 28 -24 -3 -5 0 -9 5 -9 13 0 14 17 2 24 -5 3 -14 20 -20 36 -6 18
-6 28 -1 25 6 -4 10 -13 10 -21 0 -9 5 -12 12 -8 7 4 8 3 4 -4 -5 -8 -2 -10 9
-6 13 5 13 9 3 22 -11 13 -11 14 2 7 21 -13 52 -17 46 -6 -3 5 1 11 9 15 8 3
17 0 21 -6 4 -7 3 -8 -4 -4 -7 4 -12 3 -12 -2 0 -5 11 -9 24 -9 22 0 23 1 10
14 -18 18 -18 20 1 20 8 0 13 -3 11 -6 -2 -3 3 -12 11 -19 12 -12 14 -10 11
14 -2 15 3 29 10 31 6 3 12 0 12 -7 0 -6 -4 -8 -10 -5 -11 7 -14 -8 -3 -18 3
-4 17 3 30 15 13 12 23 16 23 10 0 -7 -4 -12 -9 -12 -15 0 -21 -29 -8 -36 7
-4 9 -4 5 1 -4 4 -3 14 3 21 8 10 16 11 31 3 14 -7 18 -7 14 -1 -4 6 2 10 14
9 11 -1 20 -6 20 -11 0 -5 3 -7 6 -4 3 4 0 16 -6 28 -8 15 -8 20 -1 16 6 -4
11 -2 11 4 0 6 5 8 11 4 8 -5 8 -9 -1 -14 -10 -6 -10 -12 0 -26 10 -16 11 -16
6 -1 -3 11 0 17 10 17 8 0 13 4 10 8 -3 5 8 6 24 4 21 -3 28 -9 27 -23 -1 -12
-7 -17 -15 -14 -7 3 -10 0 -7 -6 4 -5 12 -8 18 -6 12 4 13 8 16 47 0 11 6 20
12 20 6 0 8 -9 4 -22 -4 -15 -3 -19 3 -10 5 7 13 12 18 11 20 -3 34 2 34 12 0
8 -4 8 -14 0 -10 -9 -15 -8 -19 3 -4 9 -1 18 5 22 7 4 8 3 4 -4 -4 -7 -2 -12
3 -12 6 0 11 6 11 13 0 9 2 9 8 0 5 -8 13 -9 22 -3 20 13 30 12 30 -1 0 -5 -5
-7 -11 -4 -6 4 -5 -2 2 -13 7 -12 17 -18 22 -15 5 3 5 8 -1 12 -7 4 -6 14 2
30 11 20 14 21 19 6 5 -11 13 -14 27 -10 14 4 20 2 20 -9 0 -8 4 -17 9 -20 5
-4 7 4 4 16 -4 19 -3 20 7 8 10 -13 11 -13 7 0 -2 8 -9 15 -15 15 -5 0 -14 3
-18 7 -7 8 21 4 47 -7 10 -3 20 -2 24 4 3 6 0 9 -8 5 -8 -3 -18 0 -23 7 -4 8
-3 10 5 5 6 -4 18 -3 26 4 10 8 15 8 20 -1 6 -8 9 -8 15 0 5 9 13 9 33 0 15
-7 24 -15 22 -19 -2 -4 2 -7 10 -7 13 0 13 3 0 17 -8 9 -12 20 -8 25 5 4 0 5
-9 2 -10 -3 -20 -2 -22 2 -3 5 3 8 14 7 11 0 21 -5 21 -11 1 -13 29 -29 36
-21 4 3 1 6 -5 6 -7 0 -12 5 -12 10 0 7 6 7 20 0 12 -6 20 -7 20 -1 0 5 -6 12
-12 15 -9 4 -8 5 2 5 38 -3 51 1 44 14 -6 10 -4 10 7 0 7 -7 21 -13 30 -13 10
0 20 6 22 13 4 9 6 9 6 0 1 -7 10 -13 22 -13 15 0 19 5 15 16 -4 9 -2 13 5 8
6 -4 15 0 20 7 6 9 9 10 9 2 0 -6 -12 -21 -26 -32 -22 -18 -23 -20 -5 -18 11
0 17 5 15 9 -3 4 0 9 5 9 6 1 17 2 24 3 6 1 15 -3 19 -8 8 -12 40 -18 33 -6
-3 4 2 13 9 19 10 8 16 9 21 1 3 -5 12 -10 18 -10 17 1 -24 24 -48 27 -14 2
-16 0 -7 -5 10 -7 10 -11 -3 -22 -13 -11 -15 -9 -12 11 2 13 10 24 18 24 8 1
25 7 39 14 22 11 23 10 8 -2 -16 -13 -16 -15 8 -26 15 -6 22 -16 18 -23 -5 -7
-3 -8 5 -4 9 6 9 12 -3 25 -21 23 -14 28 29 23 23 -3 32 -8 28 -16 -4 -6 1 -5
10 3 14 11 20 11 34 0 11 -10 14 -10 9 -1 -4 7 -1 12 8 12 9 0 16 -5 16 -12 0
-6 2 -9 5 -6 3 3 3 12 -1 21 -5 14 -10 15 -27 6 -17 -9 -19 -9 -11 1 11 11 38
18 98 24 17 1 32 8 34 14 6 19 21 14 18 -5 -2 -12 -12 -18 -29 -18 -14 0 -28
-3 -32 -7 -4 -4 -13 -4 -21 -1 -8 3 -14 0 -14 -7 0 -6 4 -9 9 -5 6 3 14 -3 20
-12 8 -14 11 -15 12 -3 1 8 1 18 0 22 -1 8 50 5 65 -5 6 -3 20 3 30 16 l19 22
-22 -18 c-14 -12 -23 -15 -28 -8 -3 6 -1 11 5 11 6 0 8 4 5 10 -3 6 1 7 9 4
15 -6 21 6 16 31 -1 6 2 7 6 2 12 -12 12 -51 0 -66 -7 -9 -1 -8 16 3 23 15 30
36 12 36 -3 0 -2 -5 2 -12 5 -7 3 -8 -5 -4 -9 6 -9 12 3 25 9 10 13 21 9 26
-5 4 -2 5 5 1 11 -6 11 -11 0 -23 -11 -14 -10 -15 9 -9 12 4 24 2 28 -3 4 -7
-1 -8 -12 -4 -10 3 -15 3 -12 -1 9 -10 48 -16 64 -9 19 7 19 20 0 20 -8 0 -12
-4 -9 -9 3 -4 1 -8 -4 -8 -11 0 -25 30 -17 38 3 3 5 0 5 -6 0 -6 9 -9 20 -7
12 2 23 -2 26 -9 5 -14 20 -16 39 -5 6 3 19 5 30 5 11 -1 23 4 27 9 5 6 8 6 8
-2 0 -9 8 -9 28 -3 28 9 76 17 154 25 26 3 58 9 71 14 14 6 27 8 30 5 2 -2 10
2 17 11 10 11 10 18 1 29 -8 9 -8 16 -2 20 5 4 13 0 18 -8 7 -12 10 -12 23 2
13 14 12 15 -2 10 -10 -4 -19 -1 -22 8 -6 14 31 36 46 28 4 -3 5 8 3 24 -3 22
1 28 16 29 12 1 17 -3 13 -9 -4 -6 -3 -8 4 -4 6 3 9 21 7 39 -2 17 -1 26 2 20
9 -23 22 -14 42 30 22 49 58 166 66 217 3 19 8 54 11 78 6 37 10 42 33 42 64
0 78 46 76 244 -1 114 0 119 23 134 70 46 102 153 118 395 l6 98 -37 74 -38
74 -2 148 c-2 81 -8 169 -14 196 -7 31 -8 61 -2 89 6 23 8 45 5 49 -2 4 -5 27
-5 51 -2 60 -23 106 -51 113 -40 10 -74 65 -191 301 -46 94 -106 205 -133 245
-34 53 -48 85 -50 114 -2 45 -11 95 -17 102 -3 2 -17 6 -33 9 -16 3 -32 11
-36 17 -4 7 -8 9 -8 5 0 -4 -23 1 -50 12 -28 11 -64 22 -81 25 -18 3 -55 16
-83 29 -28 13 -67 29 -86 34 -33 10 -227 52 -260 57 -19 3 -88 16 -115 22 -11
3 -31 6 -45 8 -14 1 -63 10 -110 18 -47 9 -107 19 -135 22 -27 3 -63 8 -80 11
-44 8 -85 14 -125 18 -134 14 -166 19 -170 26 -3 4 -21 8 -40 8 -19 1 -58 3
-86 5 -28 3 -58 0 -67 -5z m1010 -2829 c7 -79 16 -121 48 -212 20 -56 36 -108
37 -114 1 -7 6 -13 11 -13 6 0 8 -2 5 -5 -3 -3 -18 1 -34 10 -16 8 -23 15 -15
15 8 0 12 2 9 5 -11 12 -37 -7 -31 -23 3 -9 -5 -3 -16 13 l-22 30 6 -30 c5
-25 4 -27 -5 -12 -9 14 -15 15 -33 5 -20 -10 -21 -10 -8 5 18 22 3 22 -23 0
-17 -15 -19 -15 -8 -1 10 12 10 18 1 24 -7 4 -9 3 -6 -3 4 -6 0 -14 -9 -17 -8
-3 -13 -2 -10 3 3 5 -5 9 -19 9 -14 0 -22 -5 -19 -10 4 -6 -6 -2 -22 8 l-29
18 20 -23 20 -23 -32 18 c-17 10 -29 23 -26 28 3 5 1 6 -6 2 -9 -6 -9 -12 1
-24 12 -15 11 -15 -12 -1 -25 15 -65 15 -55 -1 3 -5 -4 -14 -15 -20 -13 -7
-20 -7 -20 0 0 5 6 10 14 10 17 0 15 25 -3 43 -10 9 -12 9 -9 -2 2 -9 -6 -16
-22 -17 -39 -4 -54 -8 -61 -17 -3 -5 -9 -1 -12 8 -4 9 -3 13 3 10 6 -3 10 -2
10 3 0 6 -7 13 -16 16 -8 3 -12 2 -9 -3 3 -5 1 -12 -5 -16 -9 -5 -14 6 -12 26
1 3 -5 6 -13 6 -8 0 -11 -5 -7 -11 9 -15 14 -53 5 -41 -5 6 -15 11 -23 11 -26
1 -50 16 -43 27 4 6 11 3 20 -8 9 -14 13 -15 13 -4 0 11 2 12 9 0 5 -7 11 -9
13 -5 3 5 -3 18 -14 29 -19 20 -19 20 -12 0 7 -17 6 -18 -8 -7 -9 7 -19 9 -22
4 -3 -5 -21 -8 -40 -7 -28 2 -33 0 -28 -13 4 -10 7 -12 10 -4 2 7 9 12 15 12
12 0 -8 -25 -21 -25 -4 -1 -18 -7 -30 -14 -13 -7 -26 -10 -29 -8 -2 3 5 8 16
12 12 3 18 11 15 17 -5 7 -2 8 6 3 9 -6 11 -4 6 4 -6 9 -13 8 -29 -6 -11 -10
-17 -13 -14 -6 9 15 -9 27 -19 12 -4 -8 -3 -9 4 -5 8 5 10 1 5 -11 -6 -15 -9
-13 -20 12 l-14 30 4 -28 c5 -32 -6 -42 -30 -27 -16 10 -15 10 4 5 18 -5 20
-2 16 15 -3 11 -9 23 -14 26 -5 3 -6 -2 -3 -10 4 -12 0 -16 -16 -16 -16 0 -20
-4 -16 -16 3 -9 2 -12 -5 -9 -5 4 -7 15 -4 24 3 11 0 18 -9 18 -9 0 -12 -5 -9
-10 4 -6 0 -8 -10 -4 -10 4 -21 -1 -27 -11 -9 -14 -10 -14 -5 5 5 18 3 22 -9
17 -9 -3 -13 -11 -9 -18 4 -7 1 -7 -9 1 -8 7 -18 10 -22 6 -13 -14 -136 -9
-136 4 0 7 5 13 11 13 5 0 7 -4 4 -10 -3 -5 -4 -10 -1 -10 16 0 13 21 -5 30
-12 7 -19 8 -16 3 4 -6 -3 -20 -14 -31 -27 -29 -33 -28 -13 3 15 23 15 25 1
19 -9 -3 -19 -14 -22 -25 -7 -20 -25 -27 -25 -9 0 6 4 10 8 10 4 0 8 9 9 20 1
11 -2 18 -8 15 -5 -4 -9 -13 -9 -21 0 -8 -5 -12 -10 -9 -6 4 -7 12 -4 18 5 9
3 9 -6 0 -11 -10 -11 -15 0 -28 11 -13 10 -14 -4 -9 -16 6 -20 16 -17 44 2 12
0 12 -7 2 -5 -8 -13 -13 -18 -12 -5 1 -10 -4 -12 -12 -2 -9 0 -8 7 2 9 13 11
13 11 -1 0 -24 -26 -31 -42 -11 -9 11 -10 14 0 8 6 -4 12 -3 12 3 0 5 -9 9
-20 8 -13 -1 -19 -6 -15 -15 2 -7 0 -10 -5 -7 -6 3 -10 1 -10 -4 0 -6 -5 -11
-11 -11 -5 0 -8 4 -4 9 3 5 1 12 -5 16 -6 4 -8 10 -5 15 3 5 1 12 -5 15 -6 4
-10 3 -9 -2 3 -19 -2 -25 -14 -14 -10 8 -14 7 -14 -3 0 -8 8 -13 19 -11 10 2
16 0 13 -6 -4 -5 -10 -7 -15 -4 -5 3 -11 1 -15 -5 -7 -11 -33 -9 -52 3 -7 5
-17 6 -22 3 -5 -3 -14 1 -21 9 -13 16 -35 10 -24 -6 3 -5 10 -7 15 -4 5 4 9 2
9 -3 0 -5 -8 -12 -17 -14 -15 -4 -18 3 -19 49 -2 57 -1 58 74 55 25 -1 53 35
58 74 1 14 4 28 6 30 2 2 60 6 129 10 111 6 158 11 239 27 14 3 61 9 105 12
120 11 174 18 290 40 44 8 111 17 148 21 38 3 77 7 86 9 10 2 54 6 97 10 43 4
87 11 98 14 10 4 33 7 50 6 25 -1 31 -6 33 -26z m-3689 -286 c30 -37 59 -44
180 -45 64 0 120 -5 123 -10 4 -6 52 -10 109 -11 l102 0 26 33 26 33 120 -8
c67 -4 170 -9 230 -11 60 -1 113 -7 118 -12 5 -5 11 -26 14 -47 2 -20 9 -46
15 -58 10 -17 9 -19 -7 -13 -17 7 -17 6 -1 -12 17 -18 17 -20 0 -33 -16 -13
-17 -12 -5 3 11 14 10 18 -8 28 -11 6 -17 16 -14 22 5 7 2 8 -5 4 -7 -5 -10
-14 -7 -22 4 -12 0 -11 -25 2 -29 14 -32 14 -44 -3 -8 -11 -10 -20 -3 -24 5
-4 3 -9 -7 -12 -9 -4 -13 -3 -10 3 6 10 -10 15 -30 10 -5 -1 -16 -3 -23 -3 -7
0 -10 -7 -8 -14 3 -8 1 -11 -5 -8 -5 4 -7 16 -4 28 4 12 3 17 -2 11 -4 -5 -22
-10 -40 -9 -27 1 -30 -2 -20 -14 10 -12 9 -13 -11 -2 -12 7 -20 17 -16 23 4 7
3 8 -5 4 -6 -4 -9 -11 -6 -16 3 -5 -13 -7 -35 -6 -34 2 -38 1 -27 -12 10 -13
9 -14 -12 -2 -20 10 -23 10 -18 -2 3 -8 -1 -15 -9 -15 -7 0 -11 4 -8 9 3 4 3
8 0 8 -2 0 -13 3 -23 6 -15 5 -15 4 -3 -5 13 -9 13 -11 -2 -11 -12 0 -15 -5
-11 -17 5 -11 3 -14 -6 -9 -7 5 -11 16 -8 25 2 10 -1 18 -8 18 -8 0 -11 -7 -7
-16 5 -14 4 -14 -13 -1 -10 8 -16 10 -12 3 5 -8 0 -11 -13 -10 -11 1 -20 6
-20 12 0 5 -4 4 -9 -4 -8 -13 -12 -13 -28 0 -16 13 -17 13 -4 -3 9 -12 22 -16
38 -13 14 2 22 1 18 -3 -3 -4 -16 -7 -28 -8 -12 0 -31 -5 -43 -11 -16 -10 -21
-9 -21 2 0 7 6 11 14 8 7 -3 13 -1 13 4 0 5 -11 9 -23 9 -19 0 -23 -5 -21 -24
2 -19 0 -21 -12 -11 -16 13 -19 23 -4 14 6 -4 7 1 3 11 -4 10 -8 13 -10 7 -3
-7 -10 -10 -18 -7 -15 6 -49 -51 -40 -66 3 -6 1 -10 -4 -10 -14 0 -14 16 -1
41 11 19 2 26 -25 19 -5 -2 -18 -4 -27 -4 -10 -1 -27 -11 -39 -22 -22 -19 -22
-19 -10 3 18 35 13 35 -19 1 -16 -17 -30 -27 -30 -21 0 5 5 14 11 20 9 9 5 11
-17 8 -16 -2 -29 -5 -29 -6 0 -1 -35 -8 -63 -11 -8 -1 -9 -5 -3 -11 7 -7 15
-6 24 1 11 9 14 8 14 -3 0 -8 -4 -12 -9 -9 -4 3 -8 0 -8 -7 0 -8 -4 -8 -15 1
-12 10 -18 10 -32 -1 -16 -13 -17 -12 -4 4 8 9 11 20 7 24 -3 3 -6 1 -6 -6 0
-8 -6 -11 -16 -7 -11 4 -15 2 -11 -8 3 -8 0 -20 -8 -26 -11 -10 -13 -8 -10 7
2 11 -1 26 -7 34 -8 11 -9 11 -4 -3 4 -14 0 -16 -25 -13 -16 2 -27 0 -24 -5 3
-5 12 -7 19 -4 8 3 17 1 20 -4 10 -16 -64 -3 -76 13 -5 6 -8 5 -8 -4 0 -8 -6
-11 -16 -7 -15 6 -15 4 -3 -11 9 -11 10 -14 2 -9 -18 10 -57 17 -49 8 4 -4 13
-7 19 -7 5 0 12 -7 14 -15 3 -9 1 -11 -4 -5 -11 15 -49 13 -46 -2 5 -21 -5
-15 -22 15 -9 15 -14 19 -11 10 7 -22 2 -23 -18 -2 -9 9 -16 11 -16 4 0 -6 -5
-8 -12 -4 -7 4 -8 3 -4 -5 4 -6 13 -8 19 -5 7 4 9 3 4 -1 -11 -13 -49 -17 -42
-5 7 11 -23 9 -42 -3 -6 -4 -13 -1 -16 5 -2 7 -8 1 -12 -14 -4 -16 -11 -28
-16 -28 -6 0 -5 8 1 19 7 14 7 22 -2 27 -7 4 -8 3 -4 -4 10 -16 -16 -15 -34 1
-12 10 -12 9 0 -6 9 -12 10 -21 3 -28 -8 -8 -13 -7 -18 2 -6 8 -4 10 6 4 8 -5
11 -4 6 1 -5 5 -12 9 -15 9 -4 0 -13 4 -20 8 -8 6 -12 4 -10 -5 2 -7 -3 -12
-10 -10 -8 1 -11 -1 -8 -6 2 -4 -4 -8 -14 -8 -16 0 -17 3 -7 16 10 13 10 13
-4 3 -9 -7 -19 -9 -24 -5 -4 4 -2 -4 5 -18 12 -23 12 -24 -3 -11 -16 12 -22 8
-18 -12 1 -5 -3 -6 -9 -2 -8 5 -7 11 1 21 7 9 8 14 1 14 -15 0 -42 -41 -35
-53 3 -6 1 -7 -5 -3 -9 5 -8 15 4 37 8 17 13 33 10 37 -3 3 -6 0 -6 -7 0 -7
-7 -11 -14 -8 -9 4 -13 1 -11 -6 6 -14 -2 -26 -30 -47 -19 -14 -20 -14 -2 6
19 23 23 49 5 38 -8 -5 -9 -2 -5 10 4 10 3 15 -4 11 -5 -4 -7 -16 -4 -28 5
-20 5 -20 -7 -6 -11 13 -16 14 -25 4 -7 -7 -9 -16 -6 -19 4 -3 1 -6 -5 -6 -15
0 -15 13 -1 27 9 9 7 10 -9 6 -12 -3 -19 -9 -16 -14 3 -5 2 -9 -3 -8 -4 1 -11
0 -15 -1 -10 -3 -25 -7 -35 -9 -5 -1 -1 -6 7 -11 9 -6 10 -10 3 -10 -19 0 -22
14 -8 34 8 10 19 15 26 10 8 -5 10 -3 4 6 -4 7 -4 15 1 19 17 12 99 115 132
165 18 28 42 81 53 119 12 37 26 68 32 68 34 4 166 10 193 9 19 0 38 7 49 20
17 19 28 20 133 17 101 -3 116 -5 130 -24z m3163 -20 c8 -9 9 -14 2 -10 -6 4
-13 1 -16 -5 -2 -8 -8 -9 -13 -4 -5 5 -4 11 4 13 6 3 10 9 6 14 -9 15 3 10 17
-8z m-4261 -13 c11 -7 12 -12 3 -21 -9 -9 -15 -8 -27 4 -9 9 -16 18 -16 21 0
9 23 7 40 -4z m3944 -6 c3 -8 2 -12 -4 -9 -6 3 -10 10 -10 16 0 14 7 11 14 -7z
m-79 -4 c-4 -7 3 -9 19 -6 16 3 24 1 20 -5 -3 -6 -8 -8 -11 -5 -3 3 -14 1 -23
-4 -15 -8 -18 -6 -15 8 5 23 4 22 11 22 3 0 2 -5 -1 -10z m508 -3 c3 -7 -3
-13 -13 -13 -10 0 -16 6 -13 13 3 7 9 13 13 13 4 0 10 -6 13 -13z m-927 -12
c-3 -8 0 -15 6 -15 6 0 9 -3 5 -6 -10 -11 -26 6 -20 21 3 8 7 15 10 15 3 0 3
-7 -1 -15z m94 7 c0 -5 -7 -9 -15 -9 -8 0 -15 4 -15 9 0 4 7 8 15 8 8 0 15 -4
15 -8z m70 -4 c0 -6 -3 -8 -7 -5 -3 4 -12 2 -20 -5 -11 -8 -12 -7 -7 6 7 18
34 22 34 4z m60 4 c0 -5 -7 -9 -15 -9 -8 0 -12 4 -9 9 3 4 9 8 15 8 5 0 9 -4
9 -8z m124 -4 c-3 -4 -9 -8 -15 -8 -5 0 -9 4 -9 8 0 5 7 9 15 9 8 0 12 -4 9
-9z m430 3 c4 -5 -3 -7 -14 -4 -23 6 -26 13 -6 13 8 0 17 -4 20 -9z m56 5 c0
-2 -7 -7 -16 -10 -8 -3 -12 -2 -9 4 6 10 25 14 25 6z m37 -8 c11 -19 12 -37 3
-43 -5 -3 -7 4 -5 15 2 11 -3 24 -13 30 -9 5 -12 10 -5 10 6 0 15 -6 20 -12z
m243 8 c0 -3 -4 -8 -10 -11 -5 -3 -10 -1 -10 4 0 6 5 11 10 11 6 0 10 -2 10
-4z m125 -14 c-3 -3 -11 0 -18 7 -9 10 -8 11 6 5 10 -3 15 -9 12 -12z m-759
-15 c0 -13 -6 -24 -13 -24 -6 0 -9 5 -5 11 4 6 7 14 8 19 5 26 10 23 10 -6z
m39 13 c-3 -5 -1 -10 6 -10 7 0 10 -3 6 -6 -9 -9 -28 6 -22 17 4 5 8 9 11 9 3
0 2 -4 -1 -10z m475 6 c0 -2 -7 -7 -16 -10 -8 -3 -12 -2 -9 4 6 10 25 14 25 6z
m334 -12 c5 -14 4 -15 -9 -4 -17 14 -19 20 -6 20 5 0 12 -7 15 -16z m76 1 c5
3 12 0 16 -6 4 -8 3 -9 -4 -5 -7 4 -12 1 -12 -6 0 -9 -3 -9 -10 2 -5 8 -9 20
-9 25 0 6 3 4 6 -3 2 -6 9 -10 13 -7z m-1460 -30 c0 -5 -5 -3 -10 5 -5 8 -10
20 -10 25 0 6 5 3 10 -5 5 -8 10 -19 10 -25z m105 25 c-3 -5 -12 -10 -18 -10
-7 0 -6 4 3 10 19 12 23 12 15 0z m143 -15 c-3 -3 -9 2 -12 12 -6 14 -5 15 5
6 7 -7 10 -15 7 -18z m415 10 c-3 -9 -8 -14 -10 -11 -3 3 -2 9 2 15 9 16 15
13 8 -4z m164 0 c4 -4 3 -5 -4 -2 -6 4 -13 2 -15 -5 -3 -8 -6 -6 -10 4 -7 17
15 19 29 3z m237 0 c-4 -8 -11 -12 -16 -9 -6 4 -5 10 3 15 19 12 19 11 13 -6z
m149 -2 c-3 -7 -6 -13 -8 -13 -2 0 -5 6 -8 13 -3 8 1 14 8 14 7 0 11 -6 8 -14z
m39 -5 c-2 -10 -6 -18 -7 -18 -1 0 -5 8 -7 18 -3 11 0 19 7 19 7 0 10 -8 7
-19z m91 5 c-3 -7 -6 -13 -8 -13 -2 0 -5 6 -8 13 -3 8 1 14 8 14 7 0 11 -6 8
-14z m-1019 -9 c3 -8 2 -12 -4 -9 -6 3 -10 10 -10 16 0 14 7 11 14 -7z m1091
7 c3 -5 2 -12 -3 -15 -5 -3 -9 1 -9 9 0 17 3 19 12 6z m695 3 c0 -8 -19 -13
-24 -6 -3 5 1 9 9 9 8 0 15 -2 15 -3z m-1930 -14 c0 -5 -2 -10 -4 -10 -3 0 -8
5 -11 10 -3 6 -1 10 4 10 6 0 11 -4 11 -10z m460 6 c0 -3 -4 -8 -10 -11 -5 -3
-10 -1 -10 4 0 6 5 11 10 11 6 0 10 -2 10 -4z m234 -8 c-3 -4 -11 -5 -19 -1
-21 7 -19 12 4 10 11 0 18 -5 15 -9z m271 2 c3 -6 -1 -7 -9 -4 -18 7 -21 14
-7 14 6 0 13 -4 16 -10z m-2445 -80 c0 -7 -13 -7 -38 -1 -2 1 -1 5 3 11 6 10
35 2 35 -10z m3340 0 c0 -5 -4 -10 -10 -10 -5 0 -10 5 -10 10 0 6 5 10 10 10
6 0 10 -4 10 -10z m-3593 -34 c0 -8 -6 -12 -15 -9 -11 5 -11 7 0 14 7 5 13 9
14 9 0 0 1 -6 1 -14z m237 -2 c3 -8 2 -12 -4 -9 -6 3 -10 10 -10 16 0 14 7 11
14 -7z m56 -5 c0 -4 -6 -11 -12 -15 -7 -4 -10 -4 -6 1 4 4 0 14 -10 21 -15 12
-15 12 6 7 12 -3 22 -9 22 -14z m3000 17 c0 -2 -8 -10 -17 -17 -16 -13 -17
-12 -4 4 13 16 21 21 21 13z m-3260 -10 c0 -3 -4 -8 -10 -11 -5 -3 -10 -1 -10
4 0 6 5 11 10 11 6 0 10 -2 10 -4z m55 -17 c-4 -5 -12 -9 -18 -8 -9 0 -8 2 1
6 6 2 9 10 6 15 -4 7 -2 8 5 4 6 -4 9 -12 6 -17z m3145 -4 c7 -8 10 -15 6 -15
-3 0 -8 0 -11 0 -3 0 -5 3 -4 6 0 4 -5 11 -13 15 -8 5 -9 9 -2 9 6 0 17 -7 24
-15z m-3190 -5 c-8 -5 -19 -10 -25 -10 -5 0 -3 5 5 10 8 5 20 10 25 10 6 0 3
-5 -5 -10z m-210 -3 c0 -2 -9 -12 -20 -22 -24 -21 -27 -14 -4 9 15 15 24 20
24 13z m130 -12 c0 -12 -19 -12 -23 0 -4 9 -1 12 9 8 7 -3 14 -7 14 -8z m-310
1 c0 -3 -4 -8 -10 -11 -5 -3 -10 -1 -10 4 0 6 5 11 10 11 6 0 10 -2 10 -4z
m-68 -28 c-7 -7 -12 -8 -12 -2 0 6 3 14 7 17 3 4 9 5 12 2 2 -3 -1 -11 -7 -17z
m-50 -5 c-5 -10 -7 -24 -5 -30 3 -7 0 -13 -6 -13 -10 0 -8 31 4 50 11 17 16
11 7 -7z m133 8 c3 -6 -3 -15 -14 -21 -14 -7 -22 -7 -26 0 -4 6 -3 10 2 9 20
-3 34 2 28 11 -3 6 -4 10 -1 10 3 0 7 -4 11 -9z m-229 -13 c4 -7 4 -10 -1 -6
-4 4 -15 2 -24 -5 -14 -11 -14 -10 -2 6 16 20 18 21 27 5z m115 -11 c-10 -9
-11 -8 -5 6 3 10 9 15 12 12 3 -3 0 -11 -7 -18z m3226 17 c-3 -3 -12 -4 -19
-1 -8 3 -5 6 6 6 11 1 17 -2 13 -5z m61 -8 c-7 -8 -15 -12 -17 -11 -5 6 10 25
20 25 5 0 4 -6 -3 -14z m-185 -29 c3 -8 -1 -14 -9 -14 -15 0 -18 9 -7 20 9 9
10 9 16 -6z m-3449 -18 c3 -3 -4 -5 -14 -6 -11 -1 -20 2 -20 7 0 8 25 8 34 -1z
m146 1 c0 -5 -2 -10 -4 -10 -3 0 -8 5 -11 10 -3 6 -1 10 4 10 6 0 11 -4 11
-10z m-26 -8 c2 -4 -4 -8 -14 -8 -10 0 -16 4 -14 8 3 4 9 8 14 8 5 0 11 -4 14
-8z m-77 -8 c-3 -3 -12 -4 -19 -1 -8 3 -5 6 6 6 11 1 17 -2 13 -5z m-286 -27
c-13 -13 -26 -3 -16 12 3 6 11 8 17 5 6 -4 6 -10 -1 -17z m209 19 c0 -3 -4 -8
-10 -11 -5 -3 -10 -1 -10 4 0 6 5 11 10 11 6 0 10 -2 10 -4z m-108 -17 c2 -2
1 -3 -1 -2 -2 2 -9 -2 -16 -7 -8 -7 -12 -5 -12 4 0 12 22 16 29 5z m-237 -9
c-3 -5 -1 -10 6 -10 7 0 10 -3 6 -6 -9 -9 -28 6 -22 17 4 5 8 9 11 9 3 0 2 -4
-1 -10z m3382 -5 c0 -8 -4 -12 -9 -9 -5 3 -6 10 -3 15 9 13 12 11 12 -6z
m-3403 -24 c-9 -9 -34 -9 -34 -1 0 5 9 8 20 7 10 -1 17 -3 14 -6z m3221 -1
c-3 -5 -12 -10 -18 -10 -7 0 -6 4 3 10 19 12 23 12 15 0z m-3460 -20 c3 -6 -1
-7 -9 -4 -18 7 -21 14 -7 14 6 0 13 -4 16 -10z m-15 -20 c0 -5 -2 -10 -4 -10
-3 0 -8 5 -11 10 -3 6 -1 10 4 10 6 0 11 -4 11 -10z m-916 -121 c-3 -5 4 -14
16 -21 26 -16 26 -28 0 -23 -11 2 -22 0 -25 -6 -8 -12 -25 -12 -25 1 0 6 10
15 23 20 12 5 19 10 15 11 -22 5 -28 7 -34 8 -11 2 6 18 20 18 8 0 13 -4 10
-8z m36 1 c0 -5 -4 -10 -10 -10 -5 0 -10 5 -10 10 0 6 5 10 10 10 6 0 10 -4
10 -10z m3735 -28 c-3 -3 -11 0 -18 7 -9 10 -8 11 6 5 10 -3 15 -9 12 -12z
m-3362 -71 c4 -1 7 -9 7 -18 0 -11 -3 -14 -8 -7 -4 6 -19 10 -34 9 -21 -2 -25
1 -18 11 6 6 19 11 28 9 9 -2 20 -4 25 -4z m2360 -6 c-3 -9 -8 -14 -10 -11 -3
3 -2 9 2 15 9 16 15 13 8 -4z m207 11 c0 -3 -4 -8 -10 -11 -5 -3 -10 -1 -10 4
0 6 5 11 10 11 6 0 10 -2 10 -4z m175 -6 c3 -5 1 -10 -4 -10 -6 0 -11 5 -11
10 0 6 2 10 4 10 3 0 8 -4 11 -10z m-295 -10 c0 -5 -2 -10 -4 -10 -3 0 -8 5
-11 10 -3 6 -1 10 4 10 6 0 11 -4 11 -10z m220 -15 c14 -19 14 -19 -2 -6 -10
7 -18 18 -18 24 0 6 1 8 3 6 1 -2 9 -13 17 -24z m25 5 c10 -11 16 -20 13 -20
-3 0 -13 9 -23 20 -10 11 -16 20 -13 20 3 0 13 -9 23 -20z m-671 -15 c-4 -8
-11 -12 -17 -8 -8 5 -7 8 1 11 7 2 9 9 6 14 -4 7 -2 8 4 4 6 -4 9 -13 6 -21z
m457 11 c8 5 11 -3 8 -23 -1 -5 -5 -7 -10 -5 -5 1 -9 -2 -9 -8 0 -5 -5 -10
-11 -10 -8 0 -8 4 0 14 6 7 10 20 8 27 -2 8 -2 11 0 6 3 -4 9 -5 14 -1z
m-1656 -14 c-3 -3 -11 0 -18 7 -9 10 -8 11 6 5 10 -3 15 -9 12 -12z m1025 -1
c0 -10 -51 -33 -58 -26 -3 3 2 13 13 23 10 9 14 11 10 3 -5 -9 -3 -12 6 -9 8
3 13 11 11 17 -1 7 2 10 8 6 5 -3 10 -10 10 -14z m-460 5 c0 -3 -4 -8 -10 -11
-5 -3 -10 -1 -10 4 0 6 5 11 10 11 6 0 10 -2 10 -4z m315 -18 c-6 -22 -6 -22
15 2 13 16 18 18 14 8 -3 -10 -1 -18 5 -18 6 0 11 5 11 11 0 5 5 7 10 4 6 -3
10 -1 10 4 0 6 5 11 11 11 8 0 9 -4 0 -13 -6 -8 -8 -17 -4 -21 4 -4 0 -4 -9
-1 -8 3 -23 -1 -32 -11 -16 -15 -19 -15 -33 -1 -9 8 -13 23 -10 31 10 24 19
19 12 -6z m-226 -10 c-11 -21 -15 -22 -25 -6 -4 7 -3 8 4 4 7 -4 12 -3 12 3 0
5 -6 11 -12 14 -7 3 -3 4 9 4 17 -1 20 -4 12 -19z m108 9 c7 -4 14 -3 18 3 4
6 11 8 16 4 5 -3 7 -10 4 -15 -4 -5 -2 -9 4 -9 5 0 12 6 15 13 5 9 7 9 12 -2
5 -11 8 -11 16 0 8 12 9 12 6 0 -5 -17 -46 -25 -62 -13 -13 10 -66 10 -83 -1
-6 -4 -19 -4 -29 0 -15 6 -15 7 -1 18 17 12 66 13 84 2z m-427 -7 c0 -5 -2
-10 -4 -10 -3 0 -8 5 -11 10 -3 6 -1 10 4 10 6 0 11 -4 11 -10z"/>
<path d="M5146 2298 c3 -5 10 -6 15 -3 13 9 11 12 -6 12 -8 0 -12 -4 -9 -9z"/>
<path d="M4416 2287 c3 -10 9 -15 12 -12 3 3 0 11 -7 18 -10 9 -11 8 -5 -6z"/>
<path d="M4440 2293 c0 -14 17 -26 43 -30 11 -2 16 1 12 8 -4 6 -13 8 -21 5
-7 -3 -18 3 -23 12 -6 9 -11 12 -11 5z"/>
<path d="M4561 2284 c0 -11 3 -14 6 -6 3 7 2 16 -1 19 -3 4 -6 -2 -5 -13z"/>
<path d="M4830 2279 c0 -5 5 -7 10 -4 6 3 10 8 10 11 0 2 -4 4 -10 4 -5 0 -10
-5 -10 -11z"/>
<path d="M2990 2135 c0 -7 30 -13 34 -7 3 4 -4 9 -15 9 -10 1 -19 0 -19 -2z"/>
<path d="M1913 1965 c0 -8 4 -15 9 -15 4 0 8 4 8 9 0 6 -4 12 -8 15 -5 3 -9
-1 -9 -9z"/>
<path d="M2395 1560 c-3 -5 -1 -10 4 -10 6 0 11 5 11 10 0 6 -2 10 -4 10 -3 0
-8 -4 -11 -10z"/>
<path d="M6520 2166 c0 -2 8 -10 18 -17 15 -13 16 -12 3 4 -13 16 -21 21 -21
13z"/>
<path d="M5631 1964 c0 -11 3 -14 6 -6 3 7 2 16 -1 19 -3 4 -6 -2 -5 -13z"/>
<path d="M5665 1960 c-3 -6 1 -7 9 -4 18 7 21 14 7 14 -6 0 -13 -4 -16 -10z"/>
<path d="M5315 1937 c-24 -18 -3 -32 25 -17 24 13 27 22 3 13 -11 -4 -14 -3
-9 5 9 16 4 15 -19 -1z"/>
<path d="M5374 1938 c-5 -7 -3 -8 6 -3 9 5 11 1 6 -16 -3 -13 -3 -18 0 -11 3
6 10 9 16 6 6 -4 5 2 -1 15 -13 24 -17 25 -27 9z"/>
<path d="M5461 1924 c0 -11 3 -14 6 -6 3 7 2 16 -1 19 -3 4 -6 -2 -5 -13z"/>
<path d="M5144 1912 c4 -6 2 -22 -4 -34 -11 -22 -10 -22 4 -4 19 24 20 32 4
42 -7 4 -8 3 -4 -4z"/>
<path d="M5174 1909 c-3 -6 -1 -16 5 -22 9 -9 10 -7 5 8 -7 18 -6 19 12 5 18
-14 18 -14 5 3 -16 20 -18 20 -27 6z"/>
<path d="M5346 1905 c-11 -8 -15 -15 -9 -15 6 0 16 7 23 15 16 19 11 19 -14 0z"/>
<path d="M5275 1900 c-16 -7 -17 -9 -3 -9 9 -1 20 4 23 9 7 11 7 11 -20 0z"/>
<path d="M5010 1881 c0 -10 19 -25 25 -20 1 2 -3 10 -11 17 -8 7 -14 8 -14 3z"/>
<path d="M4953 1848 c-2 -16 1 -18 10 -9 7 7 8 14 1 21 -6 6 -10 2 -11 -12z"/>
<path d="M5110 1861 c0 -6 4 -13 10 -16 6 -3 7 1 4 9 -7 18 -14 21 -14 7z"/>
<path d="M5016 1833 c-6 -14 -5 -15 5 -6 7 7 10 15 7 18 -3 3 -9 -2 -12 -12z"/>
<path d="M4805 1830 c-3 -6 1 -7 9 -4 18 7 21 14 7 14 -6 0 -13 -4 -16 -10z"/>
<path d="M4690 1799 c0 -5 5 -7 10 -4 6 3 10 8 10 11 0 2 -4 4 -10 4 -5 0 -10
-5 -10 -11z"/>
<path d="M4736 1793 c-6 -14 -5 -15 5 -6 7 7 10 15 7 18 -3 3 -9 -2 -12 -12z"/>
<path d="M4640 1791 c0 -6 4 -13 10 -16 6 -3 7 1 4 9 -7 18 -14 21 -14 7z"/>
<path d="M4512 1771 c-11 -7 -11 -9 0 -14 9 -3 15 1 15 9 0 8 -1 14 -1 14 -1
0 -7 -4 -14 -9z"/>
<path d="M4569 1763 c-13 -16 -12 -17 4 -4 9 7 17 15 17 17 0 8 -8 3 -21 -13z"/>
<path d="M455 1760 c-3 -5 -1 -10 4 -10 6 0 11 5 11 10 0 6 -2 10 -4 10 -3 0
-8 -4 -11 -10z"/>
<path d="M4404 1748 c-4 -7 -3 -8 5 -4 6 4 18 3 26 -4 10 -8 15 -8 21 1 4 7 3
9 -4 5 -6 -3 -13 -2 -17 4 -8 13 -22 13 -31 -2z"/>
<path d="M4300 1725 c-11 -13 -10 -14 4 -9 9 3 16 10 16 15 0 13 -6 11 -20 -6z"/>
<path d="M4335 1730 c-9 -15 4 -30 20 -23 8 3 15 9 15 13 0 12 -29 20 -35 10z"/>
<path d="M4410 1719 c0 -5 5 -7 10 -4 6 3 10 8 10 11 0 2 -4 4 -10 4 -5 0 -10
-5 -10 -11z"/>
<path d="M471 1647 c2 -1 12 -9 22 -16 15 -12 17 -12 11 3 -3 9 -13 16 -22 16
-8 0 -13 -1 -11 -3z"/>
<path d="M675 1630 c2 -11 0 -20 -5 -20 -4 0 -11 -7 -14 -16 -4 -12 0 -11 20
5 14 11 33 18 42 15 9 -2 7 1 -5 7 -13 7 -23 16 -23 21 0 4 -4 8 -9 8 -6 0 -8
-9 -6 -20z"/>
<path d="M605 1610 c-16 -7 -17 -9 -3 -9 9 -1 20 4 23 9 7 11 7 11 -20 0z"/>
<path d="M560 1600 c-9 -6 -10 -10 -3 -10 6 0 15 5 18 10 8 12 4 12 -15 0z"/>
<path d="M963 1580 c-18 -14 -20 -19 -8 -24 8 -3 14 0 12 6 -1 7 3 12 10 13
16 0 26 12 16 18 -4 3 -18 -3 -30 -13z"/>
<path d="M1007 1580 c-3 -11 0 -23 6 -27 7 -3 9 -3 5 2 -4 4 -3 14 3 21 6 7 6
15 1 18 -6 3 -12 -3 -15 -14z"/>
<path d="M1170 1584 c0 -8 5 -12 10 -9 6 4 8 11 5 16 -9 14 -15 11 -15 -7z"/>
<path d="M1226 1587 c3 -10 9 -15 12 -12 3 3 0 11 -7 18 -10 9 -11 8 -5 -6z"/>
<path d="M3124 1592 c-12 -9 -12 -22 3 -47 8 -12 13 -15 13 -6 0 10 3 11 13 3
7 -6 18 -7 26 -3 8 5 27 7 42 4 16 -2 29 0 29 5 0 13 -36 43 -43 36 -4 -4 -13
-1 -21 5 -10 9 -16 9 -21 1 -5 -7 -11 -8 -19 -1 -6 5 -16 7 -22 3z m84 -18 c6
3 15 -1 22 -9 9 -10 9 -15 1 -15 -6 0 -11 6 -11 13 0 8 -3 9 -8 1 -4 -6 -15
-10 -24 -8 -10 1 -18 -3 -18 -9 0 -7 -7 -3 -15 7 -8 11 -15 14 -15 7 0 -7 -5
-9 -10 -6 -15 9 -1 27 16 21 7 -3 16 -1 20 5 4 6 11 6 19 -1 8 -7 18 -9 23 -6z"/>
<path d="M3166 1572 c-3 -5 1 -9 9 -9 8 0 12 4 9 9 -3 4 -7 8 -9 8 -2 0 -6 -4
-9 -8z"/>
<path d="M1253 1576 c-4 -5 -1 -6 7 -1 10 6 12 3 7 -11 -6 -17 -6 -17 5 -3 7
9 23 14 35 13 12 -2 24 0 27 4 2 4 -14 7 -36 7 -22 1 -42 -3 -45 -9z"/>
<path d="M1436 1575 c-20 -15 -33 -50 -15 -39 5 3 7 9 4 14 -3 5 4 11 15 15
11 3 20 11 20 16 0 12 -1 11 -24 -6z"/>
<path d="M890 1570 c-9 -6 -10 -10 -3 -10 6 0 15 5 18 10 8 12 4 12 -15 0z"/>
<path d="M1151 1564 c0 -11 3 -14 6 -6 3 7 2 16 -1 19 -3 4 -6 -2 -5 -13z"/>
<path d="M1865 1569 c-10 -15 3 -25 16 -12 7 7 7 13 1 17 -6 3 -14 1 -17 -5z"/>
<path d="M1905 1570 c-3 -5 1 -10 10 -10 9 0 13 5 10 10 -3 6 -8 10 -10 10 -2
0 -7 -4 -10 -10z"/>
<path d="M3025 1569 c-10 -15 3 -25 16 -12 7 7 7 13 1 17 -6 3 -14 1 -17 -5z"/>
<path d="M1345 1560 c3 -5 8 -10 11 -10 2 0 4 5 4 10 0 6 -5 10 -11 10 -5 0
-7 -4 -4 -10z"/>
<path d="M1510 1560 c0 -5 5 -10 11 -10 5 0 7 5 4 10 -3 6 -8 10 -11 10 -2 0
-4 -4 -4 -10z"/>
<path d="M1818 1552 c4 -10 7 -12 10 -4 2 7 9 9 15 5 7 -3 8 -2 4 2 -14 16
-36 14 -29 -3z"/>
<path d="M1985 1560 c6 -10 4 -12 -11 -6 -15 6 -17 5 -6 -5 9 -9 15 -10 23 -2
8 8 7 13 -2 18 -8 6 -10 4 -4 -5z"/>
<path d="M1752 1551 c-11 -6 -9 -9 6 -13 15 -4 19 -2 15 8 -6 16 -4 16 -21 5z"/>
<path d="M1935 1550 c-3 -5 -1 -10 4 -10 6 0 11 5 11 10 0 6 -2 10 -4 10 -3 0
-8 -4 -11 -10z"/>
<path d="M2225 1550 c-4 -6 -11 -7 -17 -4 -6 4 -6 0 1 -13 6 -11 7 -24 3 -28
-4 -5 -2 -5 5 -1 7 4 10 13 6 21 -3 10 0 14 8 12 8 -2 11 -2 6 0 -4 3 -5 9 -1
14 3 5 3 9 0 9 -3 0 -8 -5 -11 -10z"/>
<path d="M2793 1545 c0 -8 4 -15 9 -15 4 0 8 4 8 9 0 6 -4 12 -8 15 -5 3 -9
-1 -9 -9z"/>
<path d="M1556 1533 c-6 -14 -5 -15 5 -6 7 7 10 15 7 18 -3 3 -9 -2 -12 -12z"/>
<path d="M1627 1539 c7 -7 15 -10 18 -7 3 3 -2 9 -12 12 -14 6 -15 5 -6 -5z"/>
<path d="M1890 1546 c0 -2 7 -7 16 -10 8 -3 12 -2 9 4 -6 10 -25 14 -25 6z"/>
<path d="M2896 1537 c3 -10 9 -15 12 -12 3 3 0 11 -7 18 -10 9 -11 8 -5 -6z"/>
<path d="M2933 1534 c-3 -8 -3 -18 1 -21 3 -4 6 1 6 10 0 10 5 14 15 11 8 -4
15 -4 15 -1 0 14 -31 15 -37 1z"/>
<path d="M1716 1527 c3 -10 9 -15 12 -12 3 3 0 11 -7 18 -10 9 -11 8 -5 -6z"/>
<path d="M1862 1525 c15 -16 20 -17 30 -6 11 11 10 13 0 7 -7 -4 -21 -2 -30 5
-15 12 -15 11 0 -6z"/>
<path d="M2050 1531 c0 -7 -5 -9 -12 -5 -7 5 -8 3 -3 -5 5 -9 10 -10 18 -2 6
6 8 14 4 18 -4 3 -7 1 -7 -6z"/>
<path d="M2109 1519 l-24 -20 28 17 c15 9 27 18 27 20 0 8 -8 4 -31 -17z"/>
<path d="M2297 1525 c-4 -8 -3 -16 1 -19 4 -3 9 4 9 15 2 23 -3 25 -10 4z"/>
<path d="M1800 1520 c-9 -6 -10 -10 -3 -10 6 0 15 5 18 10 8 12 4 12 -15 0z"/>
<path d="M2326 1517 c3 -10 9 -15 12 -12 3 3 0 11 -7 18 -10 9 -11 8 -5 -6z"/>
<path d="M2356 1522 c-3 -5 1 -9 9 -9 8 0 12 4 9 9 -3 4 -7 8 -9 8 -2 0 -6 -4
-9 -8z"/>
<path d="M2406 1521 c-19 -7 -19 -8 0 -13 13 -3 21 0 21 8 0 8 -1 14 -1 13 -1
0 -10 -4 -20 -8z"/>
<path d="M2475 1520 c-3 -5 -1 -10 4 -10 6 0 11 5 11 10 0 6 -2 10 -4 10 -3 0
-8 -4 -11 -10z"/>
<path d="M2630 1520 c0 -5 5 -10 11 -10 5 0 7 5 4 10 -3 6 -8 10 -11 10 -2 0
-4 -4 -4 -10z"/>
<path d="M2715 1520 c-3 -5 -1 -10 4 -10 6 0 11 5 11 10 0 6 -2 10 -4 10 -3 0
-8 -4 -11 -10z"/>
<path d="M2835 1520 c-3 -5 -1 -10 4 -10 6 0 11 5 11 10 0 6 -2 10 -4 10 -3 0
-8 -4 -11 -10z"/>
</g>
</svg>
